<svg height="512" viewBox="0 0 60 52" width="512" xmlns="http://www.w3.org/2000/svg"><g id="Page-1" fill="none" fill-rule="evenodd"><g id="010---Sleepy-Sloth" fill="rgb(0,0,0)" fill-rule="nonzero"><path id="Shape" d="m20 23c.8026156.0234737 1.5793921-.2850527 2.1471697-.8528303s.876304-1.3445541.8528303-2.1471697c-.0005356-.545859-.4411543-.9891562-.987-.993h-.013c-.5436474.0030748-.9864984.4375116-1 .981.0033137.5522847-.4417153 1.0026863-.994 1.006s-1.0026863-.4417153-1.006-.994c0-.5522847-.4477153-1-1-1s-1 .4477153-1 1c-.0234737.8026156.2850527 1.5793921.8528303 2.1471697s1.3445541.876304 2.1471697.8528303z"/><path id="Shape" d="m34 23c.8026156.0234737 1.5793921-.2850527 2.1471697-.8528303s.876304-1.3445541.8528303-2.1471697c-.0005356-.545859-.4411543-.9891562-.987-.993h-.013c-.5436474.0030748-.9864984.4375116-1 .981.0033137.5522847-.4417153 1.0026863-.994 1.006s-1.0026863-.4417153-1.006-.994c0-.5522847-.4477153-1-1-1s-1 .4477153-1 1c-.0234737.8026156.2850527 1.5793921.8528303 2.1471697s1.3445541.876304 2.1471697.8528303z"/><path id="Shape" d="m4.812 42.371c3.911 4.952 7.606 9.629 25.188 9.629 19.346 0 30-7.813 30-22 0-11.3-2.5-18.709-14.75-20.517.033-2.748-.484-6.717-2.17-8.516-.525463-.60187269-1.2811436-.95319151-2.08-.967-3.618 0-5.831 4.426-6.9 6.553-.4099677.78120992-.8988507 1.51838777-1.459 2.2-1.8342199-.52153482-3.7342042-.77515796-5.641-.753-1.9084198-.02296581-3.8101218.230325-5.646.752-.5601493-.68161223-1.0490323-1.41879008-1.459-2.2-1.064-2.126-3.277-6.552-6.895-6.552-.933917.02063425-1.8009327.48912041-2.33 1.259-1.9 2.433-2.3 8.341-1.64 10.984.35256601 1.8019498 1.0042348 3.5321844 1.928 5.119-.257.357-.508.7-.758 1.038-.69171875 1.0360796-1.61070447 1.9006854-2.687 2.528-.81301838.3609743-1.36597058 1.1348777-1.444 2.021-1.86993615.0818193-3.71451946.4640394-5.463 1.132-.36760381.1575827-.60595583.5190439-.606.919 0 .463.048 11.411 4.219 16.625zm53.188-12.371c0 12.9-9.944 20-28 20-16.613 0-20.017-4.308-23.619-8.869l-.6-.756c-.90275471-1.2077755-1.59328781-2.5604358-2.042-4 1.7180426.4415089 3.48733497.6516985 5.261.625.55228475 0 1-.4477153 1-1v-3h4c.5522847 0 1-.4477153 1-1-.0964668-1.9489436-.581286-3.8589817-1.426-5.618.313.151.624.311.929.486 3.253 1.862 4.853 4.559 6.4 7.167.6815154 1.2105226 1.4432146 2.3741183 2.28 3.483 1.1415032 1.5224436 2.6790361 2.7023142 4.445 3.411 5.528 2.21 12.915 1.057 15.2-2.374.1982824-.297245.2229246-.6776931.0646441-.9980332-.1582804-.3203401-.4754371-.5319049-.832-.555s-.6983617.1457882-.8966441.4430332c-1.565 2.348-7.906 3.584-12.8 1.626-.6824883-.2702128-1.3242545-.6336672-1.907-1.08.178 0 .36.009.537.009 20.411 0 21-12.567 21-14 0-.319-.012-.594-.034-.812-.0093517-.9793646-.5881719-1.8636081-1.482-2.264-1.0720261-.6280249-1.987658-1.4910028-2.678-2.524-.25-.334-.5-.681-.758-1.038.9237652-1.5868156 1.575434-3.3170502 1.928-5.119.057-.228.1-.486.141-.751 9.595 1.441 12.889 6.239 12.889 18.508zm-31-5c.334119-.0000746.6679784.0186215 1 .056-.029.815-.682 1.9-.993 1.944-.316-.043-.97-1.129-1-1.944.3297011-.0371176.6612162-.0558134.993-.056zm-2.945.629c.254 1.528 1.367 3.371 2.945 3.371s2.691-1.843 2.945-3.371c.333216.1835633.6569607.3838177.97.6 1.7584325 1.2845446 3.9118782 1.9112911 6.085 1.771 3.0118239.1121655 6.0035153-.5346588 8.7-1.881-.9 3.499-4.482 9.881-18.7 9.881-.8 0-1.631-.028-2.5-.075-.6761956-.9373012-1.3040154-1.9085696-1.881-2.91-1.0129175-1.8501346-2.2363763-3.5769363-3.646-5.146 1.4869087-.1857268 2.9011388-.7504547 4.107-1.64.3146657-.2163266.6400822-.416583.975-.6zm-15.526-2.979c1.30269881-.7619527 2.419927-1.8036971 3.271-3.05.319-.426.639-.872.97-1.332l.23-.324c.2626513-.3645028.2499715-.8594247-.031-1.21-1.0081477-1.5008429-1.689547-3.1968459-2-4.978-.545-2.171-.128-7.465 1.277-9.267.1317614-.19228507.3136773-.34480387.526-.441.9 1.092 3.076 6.61 2.247 10.756-.1080429.5402076.2411773 1.06605.781 1.176.0657696.0137352.132813.0204396.2.02.4748929-.000378.8840215-.3347017.979-.8.4441218-3.21944479.0408485-6.49905654-1.17-9.515.9065944 1.16433152 1.6781933 2.4277408 2.3 3.766.5895605 1.11598701 1.3077855 2.15909137 2.14 3.108.2661923.3146528.6981638.4337626 1.088.3 1.8269452-.5984955 3.7407518-.88879391 5.663-.859 1.9234191-.03120644 3.83861.258083 5.667.856.3898362.1337626.8218077.0146528 1.088-.3.8322145-.94890863 1.5504395-1.99201299 2.14-3.108.6205528-1.33816459 1.3904446-2.60186061 2.295-3.767-1.2115453 3.01716422-1.61483 6.29824725-1.17 9.519.0950537.4656663.5047314.800097.98.8.0671846.000387.1342224-.0063167.2-.02.2599387-.0529946.4881678-.2071045.6344551-.428411.1462874-.2213065.1986434-.4916715.1455449-.751589-.829-4.148 1.346-9.669 2.249-10.757.1507271.0651862.2847427.16364664.392.288 1.185 1.264 1.784 5.131 1.6 7.969-.0178721.4892587-.0818216.9757437-.191 1.453-.3105873 1.7808062-.9919815 3.4764555-2 4.977-.2826913.3515738-.2949809.8488923-.03 1.214l.232.324c.331.46.651.906.97 1.333.851386 1.2436344 1.9673917 2.2834867 3.268 3.045.385.228.45.281.485.551-.376 1.18-3.655 2.803-8.955 2.803-1.775591.1344042-3.540304-.3742108-4.972-1.433-1.0004-.7483051-2.1668565-1.243706-3.4-1.444-.4497745-.1000094-.9106065-.1413532-1.371-.123h-.514c-.4608645-.0198354-.9223081.0222058-1.372.125-1.2329325.2004172-2.3992852.695431-3.4 1.443-1.4315647 1.0582023-3.1958679 1.5664466-4.971 1.432-.057 0-.109 0-.163 0-.4316262-.3118047-.8792353-.6008647-1.341-.866-2.2544525-1.2897219-4.778655-2.0358203-7.372-2.179.11404082-.1268626.25157341-.2304365.405-.305zm-1.529 2.27h.067c1.22860318-.0014585 2.45285751.145949 3.646.439 1.1224557 1.7031035 1.8680973 3.6263612 2.187 5.641h-3.9c-.55228475 0-1 .4477153-1 1v2.98c-1.68310446-.0222558-3.34942112-.3379897-4.924-.933-.61302176-2.7431611-.96790329-5.5376857-1.06-8.347 1.61223119-.5109626 3.29274728-.7739647 4.984-.78z"/><circle id="Oval" cx="19" cy="16" r="1"/><circle id="Oval" cx="35" cy="16" r="1"/></g></g></svg>